{"accessors":[{"bufferView":0,"byteOffset":0,"componentType":5126,"count":1788,"max":[0.11950000000000001,0.04,0.0],"min":[0.0,0.0,-0.055],"type":"VEC3"},{"bufferView":1,"byteOffset":0,"componentType":5123,"count":5328,"type":"SCALAR"}],"asset":{"generator":"Open CASCADE Technology [www.opencascade.com]","version":"2.0","extras":{"Comments":"CATIA STL"}},"bufferViews":[{"buffer":0,"byteLength":21456,"byteOffset":0,"byteStride":12,"target":34962},{"buffer":0,"byteLength":10656,"byteOffset":21456,"target":34963}],"buffers":[{"byteLength":32112,"uri":"Fraesteil Handwerk und Technik.bin"}],"meshes":[{"name":"CATIA STL","primitives":[{"attributes":{"POSITION":0},"indices":1,"mode":4}]}],"nodes":[{"mesh":0,"name":"CATIA STL"}],"scene":0,"scenes":[{"nodes":[0]}]}