{"accessors":[{"bufferView":0,"byteOffset":0,"componentType":5126,"count":15744,"max":[0.058,0.06,0.05],"min":[-0.058,-7.105426934084529e-18,-0.05],"type":"VEC3"},{"bufferView":1,"byteOffset":0,"componentType":5123,"count":15744,"type":"SCALAR"}],"asset":{"generator":"Open CASCADE Technology [www.opencascade.com]","version":"2.0","extras":{"Originating system":"Microsoft GLTF Exporter 2.8.3.2"}},"bufferViews":[{"buffer":0,"byteLength":188928,"byteOffset":0,"byteStride":12,"target":34962},{"buffer":0,"byteLength":31488,"byteOffset":188928,"target":34963}],"buffers":[{"byteLength":220416,"uri":"Lagerblocktest.bin"}],"materials":[{"name":"mat_0","pbrMetallicRoughness":{"baseColorFactor":[1.0,1.0,1.0,1.0],"metallicFactor":1.0,"roughnessFactor":1.0}}],"meshes":[{"name":"CATIA STL","primitives":[{"attributes":{"POSITION":0},"indices":1,"material":0,"mode":4}]}],"nodes":[{"mesh":0,"name":"CATIA STL"}],"scene":0,"scenes":[{"nodes":[0]}]}