{"accessors":[{"bufferView":0,"byteOffset":0,"componentType":5126,"count":10304,"max":[0.058,0.06,0.05],"min":[-0.058,-7.105426934084529e-18,-0.05],"type":"VEC3"},{"bufferView":1,"byteOffset":0,"componentType":5126,"count":10304,"type":"VEC3"},{"bufferView":2,"byteOffset":0,"componentType":5126,"count":10304,"type":"VEC2"},{"bufferView":3,"byteOffset":0,"componentType":5123,"count":15744,"type":"SCALAR"}],"asset":{"generator":"Open CASCADE Technology [www.opencascade.com]","version":"2.0","extras":{"Originating system":"Microsoft GLTF Exporter 2.4.2.8"}},"bufferViews":[{"buffer":0,"byteLength":123648,"byteOffset":0,"byteStride":12,"target":34962},{"buffer":0,"byteLength":123648,"byteOffset":123648,"byteStride":12,"target":34962},{"buffer":0,"byteLength":82432,"byteOffset":247296,"byteStride":8,"target":34962},{"buffer":0,"byteLength":31488,"byteOffset":329728,"target":34963}],"buffers":[{"byteLength":361216,"uri":"LagerblockJBS.bin"}],"images":[{"uri":"LagerblockJBS_textures/Lagerblock2.glb"},{"uri":"LagerblockJBS_textures/Lagerblock2.glb"}],"materials":[{"name":"mat_0","pbrMetallicRoughness":{"baseColorFactor":[1.0,1.0,1.0,1.0],"baseColorTexture":{"index":0},"metallicFactor":1.0,"metallicRoughnessTexture":{"index":1},"roughnessFactor":1.0},"doubleSided":true,"alphaMode":"MASK"}],"meshes":[{"name":"mesh_id5","primitives":[{"attributes":{"NORMAL":1,"POSITION":0,"TEXCOORD_0":2},"indices":3,"material":0,"mode":4}]}],"nodes":[{"matrix":[4.330634593963623,0.0,0.8527481555938721,0.0,0.0,4.413794040679932,0.0,0.0,-0.8527481555938721,0.0,4.330634593963623,0.0,-4.980728931514022e-7,-0.1324138045310974,0.19908155500888825,1.0],"mesh":0,"name":"root"}],"samplers":[{}],"scene":0,"scenes":[{"nodes":[0]}],"textures":[{"sampler":0,"source":0},{"sampler":0,"source":1}]}