{"accessors":[{"bufferView":0,"byteOffset":0,"componentType":5126,"count":4176,"max":[0.02,0.1,0.1],"min":[0.0,-0.1,-0.13720069885253909],"type":"VEC3"},{"bufferView":1,"byteOffset":0,"componentType":5123,"count":12120,"type":"SCALAR"}],"asset":{"generator":"Open CASCADE Technology [www.opencascade.com]","version":"2.0","extras":{"Comments":"CATIA STL"}},"bufferViews":[{"buffer":0,"byteLength":50112,"byteOffset":0,"byteStride":12,"target":34962},{"buffer":0,"byteLength":24240,"byteOffset":50112,"target":34963}],"buffers":[{"byteLength":74352,"uri":"Symbol.bin"}],"meshes":[{"name":"CATIA STL","primitives":[{"attributes":{"POSITION":0},"indices":1,"mode":4}]}],"nodes":[{"mesh":0,"name":"CATIA STL"}],"scene":0,"scenes":[{"nodes":[0]}]}